<svg width="277" height="250" viewBox="0 0 277 250" fill="none" xmlns="http://www.w3.org/2000/svg">
<path d="M0 0H58V24.0066H27.3269V225.993H58V250H0V0Z" fill="#F45A18"/>
<path d="M167.52 142.329V123.845H217.428C217.428 135.089 215.733 145.795 212.344 155.961C208.956 165.974 203.949 174.908 197.326 182.764C190.702 190.619 182.538 196.858 172.834 201.479C163.284 205.946 152.347 208.18 140.024 208.18C128.318 208.18 117.458 206.177 107.446 202.172C97.4333 198.013 88.7303 192.237 81.3365 184.843C73.9428 177.295 68.1664 168.438 64.0074 158.272C60.0025 148.105 58 137.015 58 125C58 112.985 60.0025 101.894 64.0074 91.7281C68.1664 81.5617 73.9428 72.7816 81.3365 65.3879C88.7303 57.8401 97.4333 52.0637 107.446 48.0588C117.458 43.8998 128.318 41.8203 140.024 41.8203C150.037 41.8203 159.202 43.1296 167.52 45.7482C175.992 48.3669 183.54 52.2178 190.163 57.301C196.941 62.3842 202.64 68.6997 207.261 76.2474L193.398 88.9554C188.315 80.3294 181.229 73.6288 172.141 68.8537C163.053 63.9245 152.347 61.46 140.024 61.46C128.626 61.46 118.305 64.1556 109.063 69.5469C99.8209 74.9381 92.4271 82.4089 86.8818 91.9591C81.4905 101.355 78.7949 112.369 78.7949 125C78.7949 137.477 81.4905 148.49 86.8818 158.041C92.4271 167.591 99.8209 175.062 109.063 180.453C118.305 185.844 128.626 188.54 140.024 188.54C148.034 188.54 155.197 187.385 161.512 185.074C167.982 182.61 173.527 179.221 178.148 174.908C182.769 170.595 186.543 165.666 189.47 160.12C192.551 154.575 194.784 148.645 196.171 142.329H167.52Z" fill="#00B050"/>
<path d="M144.984 133.64C144.984 131.011 145.856 128.8 147.599 127.008C149.452 125.096 151.468 124.14 153.647 124.14C155.609 124.14 157.461 125.096 159.205 127.008C161.058 128.8 161.984 131.011 161.984 133.64C161.984 136.508 161.058 138.838 159.205 140.63C157.461 142.303 155.609 143.14 153.647 143.14C151.468 143.14 149.452 142.303 147.599 140.63C145.856 138.838 144.984 136.508 144.984 133.64Z" fill="url(#paint0_linear_16_13)"/>
<path d="M276.428 250H217.428V225.993H248.78V23.7307H217.428V0H276.428V250Z" fill="#F45A18"/>
<defs>
<linearGradient id="paint0_linear_16_13" x1="144.984" y1="133.64" x2="161.984" y2="133.64" gradientUnits="userSpaceOnUse">
<stop stop-color="#B5B5B5"/>
<stop offset="1" stop-color="#E5E5E5"/>
</linearGradient>
</defs>
</svg>
